<?xml version="1.0" standalone="no"?>
<!DOCTYPE svg PUBLIC "-//W3C//DTD SVG 20010904//EN"
 "http://www.w3.org/TR/2001/REC-SVG-20010904/DTD/svg10.dtd">
<svg version="1.0" xmlns="http://www.w3.org/2000/svg"
 width="376.000000pt" height="376.000000pt" viewBox="0 0 376.000000 376.000000"
 preserveAspectRatio="xMidYMid meet">
<metadata>
Created by potrace 1.16, written by Peter Selinger 2001-2019
</metadata>
<g transform="translate(0.000000,376.000000) scale(0.100000,-0.100000)"
fill="#000000" stroke="none">
<path d="M1602 3744 c-299 -43 -607 -172 -857 -359 -108 -80 -296 -270 -378
-380 -183 -248 -307 -548 -351 -852 -20 -141 -21 -402 -1 -542 44 -307 170
-612 360 -866 80 -108 270 -296 380 -378 248 -183 548 -307 852 -351 141 -20
402 -21 542 -1 307 44 612 170 866 360 108 80 296 270 378 380 183 248 307
548 351 852 20 141 21 402 1 542 -44 307 -170 612 -360 866 -80 108 -270 296
-380 378 -248 183 -548 307 -852 351 -136 20 -417 20 -551 0z m586 -373 c197
-43 377 -120 540 -228 45 -31 85 -59 88 -64 8 -14 -130 -162 -228 -245 -148
-124 -448 -309 -467 -288 -5 5 -54 90 -111 189 -97 171 -318 516 -382 598 -17
21 -28 40 -26 42 14 14 165 23 318 20 128 -3 200 -9 268 -24z m-866 -238 c168
-232 448 -682 448 -721 0 -19 -329 -95 -550 -126 -227 -32 -632 -55 -752 -42
l-66 7 25 82 c31 105 126 301 189 394 111 161 257 308 412 413 74 50 181 109
198 110 6 0 49 -53 96 -117z m1820 -405 c107 -161 180 -332 222 -519 14 -64
26 -133 26 -153 l0 -36 -198 0 c-222 0 -395 -11 -618 -40 -84 -11 -158 -20
-166 -20 -12 0 -126 246 -117 253 2 2 49 27 104 56 226 119 429 272 590 444
50 52 93 96 96 96 4 1 31 -36 61 -81z m-1151 -751 l46 -103 -79 -22 c-350 -98
-735 -295 -983 -504 -94 -78 -223 -209 -289 -290 -21 -27 -42 -48 -47 -48 -26
0 -158 254 -204 392 -37 113 -65 258 -72 378 l-6 105 289 1 c456 2 848 55
1194 162 52 17 97 30 100 31 3 0 26 -46 51 -102z m1388 -364 c-51 -274 -166
-513 -352 -731 -58 -68 -212 -211 -236 -220 -4 -1 -22 71 -41 160 -37 184
-107 447 -173 650 l-44 136 76 11 c69 10 236 26 351 34 25 2 131 4 236 5 l191
2 -8 -47z m-1152 -242 c69 -207 135 -457 178 -674 49 -246 51 -229 -42 -260
-178 -58 -272 -72 -488 -72 -168 1 -216 4 -298 23 -220 49 -434 145 -600 268
l-87 65 29 42 c169 245 486 486 832 631 91 37 309 113 374 129 45 11 49 4 102
-152z"/>
</g>
</svg>
