<?xml version="1.0" standalone="no"?>
<!DOCTYPE svg PUBLIC "-//W3C//DTD SVG 20010904//EN"
 "http://www.w3.org/TR/2001/REC-SVG-20010904/DTD/svg10.dtd">
<svg version="1.0" xmlns="http://www.w3.org/2000/svg"
 width="376.000000pt" height="376.000000pt" viewBox="0 0 376.000000 376.000000"
 preserveAspectRatio="xMidYMid meet">

<g transform="translate(0.000000,376.000000) scale(0.100000,-0.100000)"
fill="#000000" stroke="none">
<path d="M1670 3749 c-215 -24 -430 -90 -640 -196 -175 -88 -299 -175 -438
-308 -173 -165 -288 -319 -392 -526 -467 -928 -87 -2058 848 -2524 925 -461
2053 -79 2517 853 459 923 82 2045 -846 2512 -319 161 -697 229 -1049 189z
m329 -349 c279 -25 521 -110 743 -262 l88 -60 -19 -27 c-32 -44 -170 -183
-240 -240 -92 -76 -227 -164 -345 -227 l-104 -55 -38 68 c-109 200 -299 506
-433 695 l-61 86 31 7 c27 6 163 19 239 23 14 1 76 -3 139 -8z m-667 -272
c124 -174 177 -254 280 -423 136 -225 173 -296 158 -305 -22 -13 -298 -78
-425 -99 -222 -38 -388 -52 -667 -58 -221 -5 -278 -3 -278 7 0 7 15 59 34 115
43 128 110 263 189 380 76 112 273 311 382 385 72 49 211 129 226 130 3 0 49
-60 101 -132z m1815 -400 c131 -197 221 -435 247 -654 l6 -51 -252 -6 c-273
-7 -408 -17 -617 -48 -74 -10 -135 -18 -136 -17 -7 8 -115 261 -113 263 2 1
48 25 103 54 124 66 295 177 400 262 82 66 285 266 285 281 0 23 21 0 77 -84z
m-1151 -752 c24 -54 43 -100 42 -101 -2 -2 -84 -30 -183 -63 -358 -120 -637
-268 -872 -466 -92 -77 -232 -218 -297 -298 -21 -27 -42 -48 -46 -48 -24 0
-150 235 -198 370 -52 148 -87 344 -92 510 0 3 114 6 252 7 264 0 425 11 668
44 174 24 429 78 560 119 52 16 101 28 108 27 7 -1 33 -46 58 -101z m1388
-353 c-61 -357 -253 -688 -534 -920 -70 -58 -73 -58 -84 17 -23 154 -109 487
-188 729 -36 112 -47 156 -38 161 12 8 154 26 305 39 50 5 193 9 318 10 l228
1 -7 -37z m-1157 -240 c69 -211 108 -349 148 -523 37 -162 78 -390 71 -397
-10 -10 -158 -56 -239 -74 -428 -95 -890 7 -1250 274 -37 28 -67 55 -67 61 0
39 260 313 389 409 204 152 461 277 751 367 69 21 130 39 135 39 6 1 34 -70
62 -156z"/>
</g>
</svg>
